<svg width="30" height="30" viewBox="0 0 30 30" fill="none" xmlns="http://www.w3.org/2000/svg">
<rect y="-3.05176e-05" width="30" height="30" rx="8" fill="#282828"/>
<path d="M21.1976 8.23029C19.5837 6.69718 17.4017 5.75644 15 5.75644C10.0294 5.75644 6 9.78588 6 14.7564C6 19.727 10.0294 23.7564 15 23.7564C19.9706 23.7564 24 19.727 24 14.7564C24 14.5927 23.9956 14.4299 23.987 14.2683L21.7912 16.46C21.0304 19.5027 18.2784 21.7564 15 21.7564C11.134 21.7564 8 18.6224 8 14.7564C8 10.8904 11.134 7.75644 15 7.75644C16.8477 7.75644 18.5283 8.47235 19.7793 9.64191L21.1976 8.23029Z" fill="white"/>
<path fill-rule="evenodd" clip-rule="evenodd" d="M25.239 7.16469C25.0193 6.94344 24.6615 6.94344 24.4432 7.16469L16.0575 15.5114C15.8377 15.7342 15.4792 15.7342 15.261 15.5114L11.5868 11.7697C11.478 11.6587 11.3355 11.6039 11.1923 11.6032C11.0475 11.6024 10.9005 11.6572 10.7903 11.7697L9.1665 13.2292C9.0585 13.3402 9 13.4789 9 13.6237C9 13.7692 9.0585 13.9214 9.16725 14.0317L12.8723 17.9197C13.0912 18.1417 13.4505 18.5017 13.6687 18.7222L15.2618 20.3279C15.4808 20.5477 15.8385 20.5477 16.0583 20.3279L26.8328 9.57294C27.0525 9.35244 27.0525 8.99019 26.8328 8.76969L25.239 7.16469Z" fill="white"/>
</svg>
