<svg width="30" height="30" viewBox="0 0 30 30" fill="none" xmlns="http://www.w3.org/2000/svg">
<rect y="-3.05176e-05" width="30" height="30" rx="8" fill="#E6E6E6"/>
<path d="M21.1976 8.47382C19.5837 6.94071 17.4017 5.99997 15 5.99997C10.0294 5.99997 6 10.0294 6 15C6 19.9705 10.0294 24 15 24C19.9706 24 24 19.9705 24 15C24 14.8362 23.9956 14.6734 23.987 14.5118L21.7912 16.7036C21.0304 19.7462 18.2784 22 15 22C11.134 22 8 18.866 8 15C8 11.134 11.134 7.99997 15 7.99997C16.8477 7.99997 18.5283 8.71588 19.7793 9.88544L21.1976 8.47382Z" fill="#FF4A55"/>
<path fill-rule="evenodd" clip-rule="evenodd" d="M25.239 7.40822C25.0193 7.18697 24.6615 7.18697 24.4432 7.40822L16.0575 15.755C15.8377 15.9777 15.4792 15.9777 15.261 15.755L11.5868 12.0132C11.478 11.9022 11.3355 11.8475 11.1923 11.8467C11.0475 11.846 10.9005 11.9007 10.7903 12.0132L9.1665 13.4727C9.0585 13.5837 9 13.7225 9 13.8672C9 14.0127 9.0585 14.165 9.16725 14.2752L12.8723 18.1632C13.0912 18.3852 13.4505 18.7452 13.6687 18.9657L15.2618 20.5715C15.4808 20.7912 15.8385 20.7912 16.0583 20.5715L26.8328 9.81647C27.0525 9.59597 27.0525 9.23372 26.8328 9.01322L25.239 7.40822Z" fill="#FF4A55"/>
</svg>
