<svg width="21" height="19" viewBox="0 0 21 19" fill="none" xmlns="http://www.w3.org/2000/svg">
<path d="M15.1976 3.23029C13.5837 1.69718 11.4017 0.756439 9 0.756439C4.02944 0.756439 0 4.78588 0 9.75644C0 14.727 4.02944 18.7564 9 18.7564C13.9706 18.7564 18 14.727 18 9.75644C18 9.59266 17.9956 9.42989 17.987 9.26827L15.7912 11.46C15.0304 14.5027 12.2784 16.7564 9 16.7564C5.13401 16.7564 2 13.6224 2 9.75644C2 5.89045 5.13401 2.75644 9 2.75644C10.8477 2.75644 12.5283 3.47235 13.7793 4.64191L15.1976 3.23029Z" fill="#FF4A55"/>
<path fill-rule="evenodd" clip-rule="evenodd" d="M19.239 2.16469C19.0193 1.94344 18.6615 1.94344 18.4432 2.16469L10.0575 10.5114C9.83775 10.7342 9.47925 10.7342 9.261 10.5114L5.58675 6.76969C5.478 6.65869 5.3355 6.60394 5.19225 6.60319C5.0475 6.60244 4.9005 6.65719 4.79025 6.76969L3.1665 8.22919C3.0585 8.34019 3 8.47894 3 8.62369C3 8.76919 3.0585 8.92144 3.16725 9.03169L6.87225 12.9197C7.09125 13.1417 7.4505 13.5017 7.66875 13.7222L9.26175 15.3279C9.48075 15.5477 9.8385 15.5477 10.0583 15.3279L20.8328 4.57294C21.0525 4.35244 21.0525 3.99019 20.8328 3.76969L19.239 2.16469Z" fill="#FF4A55"/>
</svg>
